<svg width="20" height="20" viewBox="0 0 20 20" fill="none" xmlns="http://www.w3.org/2000/svg">
<g clip-path="url(#clip0_17_607)">
<path fill-rule="evenodd" clip-rule="evenodd" d="M11.5609 13.9832C11.641 13.7763 11.677 13.5549 11.6667 13.3333C11.6667 11.4208 10.3908 10 10 10C9.60917 10 8.33333 11.4208 8.33333 13.3333C8.323 13.5549 8.35904 13.7763 8.43914 13.9832C8.51925 14.19 8.64165 14.3779 8.79852 14.5348C8.9554 14.6917 9.14329 14.8141 9.35017 14.8942C9.55706 14.9743 9.77839 15.0103 10 15C10.2216 15.0103 10.4429 14.9743 10.6498 14.8942C10.8567 14.8141 11.0446 14.6917 11.2015 14.5348C11.3583 14.3779 11.4808 14.19 11.5609 13.9832Z" fill="#F1D672"/>
<path fill-rule="evenodd" clip-rule="evenodd" d="M14.6575 3.62917C15.0945 5.06161 15.7855 6.40381 16.6975 7.59167C17.8226 8.91449 18.4069 10.6133 18.3334 12.3483C18.3334 16.5675 14.595 20 10 20C5.40502 20 1.66669 16.5675 1.66669 12.3483C1.66669 4.35833 7.17169 1.46602e-07 10 1.46602e-07C11.0697 -0.000264076 12.1088 0.356637 12.9525 1.01409C13.7963 1.67154 14.3963 2.5919 14.6575 3.62917ZM8.71278 16.4331C9.12168 16.5971 9.55957 16.6766 10 16.6667C10.4405 16.6766 10.8784 16.5971 11.2873 16.4331C11.6962 16.2691 12.0676 16.0239 12.3791 15.7124C12.6906 15.4009 12.9358 15.0295 13.0998 14.6206C13.2638 14.2117 13.3433 13.7738 13.3334 13.3333C13.3334 10.8567 11.6509 8.33333 10 8.33333C8.34919 8.33333 6.66669 10.8567 6.66669 13.3333C6.65678 13.7738 6.73623 14.2117 6.90024 14.6206C7.06425 15.0295 7.30941 15.4009 7.62094 15.7124C7.93246 16.0239 8.30389 16.2691 8.71278 16.4331Z" fill="#AAE197"/>
</g>
<defs>
<clipPath id="clip0_17_607">
<rect width="20" height="20" fill="white"/>
</clipPath>
</defs>
</svg>
