<svg width="20" height="20" viewBox="0 0 20 20" fill="none" xmlns="http://www.w3.org/2000/svg">
<g clip-path="url(#clip0_17_602)">
<path d="M13.1217 15.2117C13.1217 13.9617 12.2625 12.2533 10.705 10.4008C10.6188 10.298 10.5108 10.2156 10.3889 10.1595C10.267 10.1035 10.1342 10.0752 10 10.0767C9.86483 10.076 9.73115 10.1049 9.60825 10.1611C9.48535 10.2174 9.37618 10.2998 9.28833 10.4025C7.58333 12.4 6.75 14.1667 6.89416 15.5208C6.9509 15.949 7.09772 16.3602 7.32496 16.7275C7.55219 17.0948 7.85468 17.4098 8.2125 17.6517C8.71865 18.0667 9.34601 18.3059 10 18.3333C10.8276 18.3324 11.6211 18.0033 12.2064 17.418C12.7916 16.8328 13.1208 16.0393 13.1217 15.2117Z" fill="#ED7979"/>
<path d="M13.8575 2.41666C13.2025 1.85999 12.515 1.27666 11.815 0.639988C11.5496 0.399015 11.2347 0.218966 10.8924 0.112445C10.5501 0.00592464 10.1886 -0.0244929 9.83333 0.0233218C9.48898 0.0689272 9.15885 0.189588 8.86625 0.376781C8.57366 0.563974 8.32573 0.813132 8.13999 1.10666C7.14699 2.76651 6.44467 4.58374 6.06333 6.47999C5.91413 6.26395 5.78153 6.03691 5.66666 5.80082C5.54871 5.55231 5.37108 5.33686 5.14962 5.17368C4.92816 5.01051 4.66975 4.90468 4.39745 4.86565C4.12515 4.82662 3.84743 4.8556 3.58905 4.95C3.33067 5.0444 3.09967 5.20128 2.91666 5.40665C1.51942 6.83532 0.744881 8.75922 0.762495 10.7575C0.743172 12.7987 1.40702 14.7877 2.64842 16.4081C3.88983 18.0286 5.63747 19.1873 7.61333 19.7C8.36985 19.8903 9.14657 19.9888 9.92666 19.9933C8.92977 19.9562 7.9716 19.5978 7.19499 18.9717C6.657 18.593 6.20464 18.1055 5.86726 17.5407C5.52989 16.9759 5.31504 16.3465 5.23666 15.6933C5.04499 13.8517 5.98083 11.7075 8.01833 9.32082C8.26276 9.03429 8.56662 8.8044 8.90883 8.64711C9.25103 8.48983 9.62337 8.40891 10 8.40999H10.0083C10.3838 8.4103 10.7548 8.49247 11.0953 8.65078C11.4358 8.80909 11.7377 9.03974 11.98 9.32666C13.2617 10.8492 14.7908 13.1058 14.7908 15.2108C14.789 16.4239 14.327 17.5911 13.4982 18.4769C12.6693 19.3627 11.5353 19.901 10.325 19.9833C12.718 19.9062 14.9871 18.9006 16.6515 17.1794C18.3159 15.4583 19.2449 13.1568 19.2417 10.7625C19.2375 6.98749 16.7442 4.87082 13.8575 2.41666Z" fill="#F1D672"/>
</g>
<defs>
<clipPath id="clip0_17_602">
<rect width="20" height="20" fill="white"/>
</clipPath>
</defs>
</svg>
