<svg width="20" height="20" viewBox="0 0 20 20" fill="none" xmlns="http://www.w3.org/2000/svg">
<g clip-path="url(#clip0_17_613)">
<path fill-rule="evenodd" clip-rule="evenodd" d="M2.5 14.9996H7.25C9.16567 14.9831 11.0092 14.2666 12.4332 12.9851C13.8571 11.7036 14.7633 9.94548 14.9808 8.04213C15.0588 6.9685 14.9047 5.89067 14.529 4.88188C14.1534 3.87309 13.565 2.95699 12.8038 2.19582C12.0426 1.43464 11.1265 0.846243 10.1178 0.470597C9.10896 0.0949508 8.03113 -0.0591386 6.9575 0.0187994C5.05493 0.236076 3.29744 1.14145 2.01598 2.56442C0.734522 3.98739 0.0175226 5.82978 0 7.74463V11.9446C0 14.0546 1.25583 14.9996 2.5 14.9996Z" fill="#87B1F0"/>
<path fill-rule="evenodd" clip-rule="evenodd" d="M16.6567 7.56631H16.6667C17.6791 8.15086 18.5201 8.99137 19.1051 10.0035C19.6902 11.0157 19.9988 12.1639 20 13.333V17.4996C20 18.1627 19.7366 18.7986 19.2678 19.2674C18.7989 19.7363 18.163 19.9996 17.5 19.9996H13.3333C12.1645 19.9975 11.0167 19.6881 10.0052 19.1025C8.99365 18.5169 8.15384 17.6756 7.57001 16.663V16.6505C12.2058 16.4813 16.325 12.6663 16.6467 8.15965C16.6567 7.96131 16.6567 7.76381 16.6567 7.56631Z" fill="#AAE197"/>
</g>
<defs>
<clipPath id="clip0_17_613">
<rect width="20" height="20" fill="white"/>
</clipPath>
</defs>
</svg>
