<svg width="20" height="20" viewBox="0 0 20 20" fill="none" xmlns="http://www.w3.org/2000/svg">
<g clip-path="url(#clip0_17_599)">
<path d="M14.7675 2.5L13.59 0.973333C13.3554 0.671505 13.0553 0.427014 12.7122 0.258378C12.3692 0.0897429 11.9922 0.00138587 11.61 0L8.38998 0C8.00773 0.00138587 7.63081 0.0897429 7.28776 0.258378C6.94471 0.427014 6.64454 0.671505 6.40998 0.973333L5.23248 2.5H14.7675Z" fill="#ABB5C5"/>
<path d="M10 15C11.841 15 13.3334 13.5076 13.3334 11.6666C13.3334 9.8257 11.841 8.33331 10 8.33331C8.15907 8.33331 6.66669 9.8257 6.66669 11.6666C6.66669 13.5076 8.15907 15 10 15Z" fill="#707F9B"/>
<path d="M15.8333 4.16669H4.16667C3.062 4.16801 2.00296 4.60742 1.22185 5.38854C0.440735 6.16965 0.00132321 7.22869 0 8.33335L0 15.8334C0.00132321 16.938 0.440735 17.9971 1.22185 18.7782C2.00296 19.5593 3.062 19.9987 4.16667 20H15.8333C16.938 19.9987 17.997 19.5593 18.7782 18.7782C19.5593 17.9971 19.9987 16.938 20 15.8334V8.33335C19.9987 7.22869 19.5593 6.16965 18.7782 5.38854C17.997 4.60742 16.938 4.16801 15.8333 4.16669ZM10 16.6667C9.01109 16.6667 8.04439 16.3734 7.22215 15.824C6.3999 15.2746 5.75904 14.4937 5.3806 13.5801C5.00216 12.6665 4.90315 11.6611 5.09607 10.6912C5.289 9.72133 5.7652 8.83042 6.46447 8.13115C7.16373 7.43189 8.05464 6.95569 9.02455 6.76276C9.99445 6.56983 10.9998 6.66885 11.9134 7.04729C12.827 7.42573 13.6079 8.06659 14.1573 8.88884C14.7068 9.71108 15 10.6778 15 11.6667C14.9987 12.9924 14.4715 14.2634 13.5341 15.2008C12.5967 16.1382 11.3257 16.6654 10 16.6667Z" fill="#707F9B"/>
</g>
<defs>
<clipPath id="clip0_17_599">
<rect width="20" height="20" fill="white"/>
</clipPath>
</defs>
</svg>
