<svg width="20" height="20" viewBox="0 0 20 20" fill="none" xmlns="http://www.w3.org/2000/svg">
<g clip-path="url(#clip0_17_609)">
<path fill-rule="evenodd" clip-rule="evenodd" d="M11.2942 19.4958C11.9178 19.8401 12.6211 20.014 13.3333 20C15.2958 20 16.6667 18.2866 16.6667 15.8333C16.6667 11.97 12.9108 8.33331 10 8.33331C7.08917 8.33331 3.33334 11.97 3.33334 15.8333C3.26834 19.3558 6.19501 20.9016 8.70584 19.4958C9.10484 19.2856 9.54903 19.1758 10 19.1758C10.451 19.1758 10.8952 19.2856 11.2942 19.4958Z" fill="#BEB1B6"/>
<path fill-rule="evenodd" clip-rule="evenodd" d="M5.48748 6.17166C5.85513 6.48474 6.32047 6.6598 6.80331 6.66666C8.30165 6.66666 9.33331 4.86166 9.14665 2.92583C9.12432 2.46729 9.01152 2.01771 8.81472 1.60295C8.61793 1.18819 8.34103 0.816463 7.99998 0.50916C7.77152 0.31971 7.50722 0.178238 7.22287 0.093191C6.93852 0.00814383 6.63995 -0.0187347 6.34498 0.0141601C5.12082 0.150827 3.98748 1.37583 4.18998 3.45416C4.25474 4.49371 4.7198 5.46773 5.48748 6.17166ZM1.19165 11.1717C1.51069 11.4798 1.93405 11.6565 2.37748 11.6667C3.63248 11.6667 4.65748 9.86166 4.48998 7.92583C4.45864 7.0195 4.0898 6.1576 3.45582 5.50916C3.25869 5.32333 3.02339 5.18276 2.76632 5.09727C2.50926 5.01177 2.23664 4.98341 1.96748 5.01416C0.863316 5.15083 -0.158351 6.37583 0.0249823 8.45416C0.0716261 9.47146 0.486226 10.4372 1.19165 11.1717ZM10.8575 2.92333C10.6683 4.86166 11.6883 6.66666 13.1966 6.66666C13.6793 6.65975 14.1446 6.48503 14.5125 6.17249C15.2801 5.4682 15.7452 4.49394 15.81 3.45416C16.0125 1.37583 14.8791 0.150827 13.655 0.0141601C13.3609 -0.0183608 13.0632 0.00847157 12.7796 0.0930682C12.4961 0.177665 12.2324 0.318305 12.0041 0.50666C11.6631 0.813963 11.3862 1.18569 11.1894 1.60045C10.9926 2.01521 10.8798 2.46479 10.8575 2.92333ZM15.365 7.92333C15.1883 9.86166 15.9725 11.6667 17.5441 11.6667C17.9996 11.6568 18.4355 11.4801 18.7691 11.17C19.4946 10.4446 19.9254 9.47615 19.9783 8.45166C20.1666 6.37333 19.1108 5.14833 17.9708 5.01166C17.6939 4.97996 17.4135 5.00772 17.1482 5.09308C16.8829 5.17845 16.6389 5.31945 16.4325 5.50666C15.7818 6.14685 15.4 7.01121 15.365 7.92333Z" fill="#F9DC99"/>
</g>
<defs>
<clipPath id="clip0_17_609">
<rect width="20" height="20" fill="white"/>
</clipPath>
</defs>
</svg>
