<svg width="20" height="20" viewBox="0 0 20 20" fill="none" xmlns="http://www.w3.org/2000/svg">
<path fill-rule="evenodd" clip-rule="evenodd" d="M4.16667 3.33334H10.8333C13.1308 3.33334 15 5.20251 15 7.50001V12.5C15 14.7975 13.1308 16.6667 10.8333 16.6667H4.16667C1.86917 16.6667 0 14.7975 0 12.5V7.50001C0 5.20251 1.86917 3.33334 4.16667 3.33334ZM8.33333 10.8333H10C10.46 10.8333 10.8333 10.46 10.8333 10C10.8333 9.54001 10.46 9.16668 10 9.16668H8.33333V7.50001C8.33333 7.04001 7.96 6.66668 7.5 6.66668C7.04 6.66668 6.66667 7.04001 6.66667 7.50001V9.16668H5C4.54 9.16668 4.16667 9.54001 4.16667 10C4.16667 10.46 4.54 10.8333 5 10.8333H6.66667V12.5C6.66667 12.96 7.04 13.3333 7.5 13.3333C7.96 13.3333 8.33333 12.96 8.33333 12.5V10.8333Z" fill="#87B1F0"/>
<path fill-rule="evenodd" clip-rule="evenodd" d="M20 13.0183V6.91917C20 6.28833 19.6517 5.7225 19.0858 5.44C18.52 5.1575 17.8575 5.21833 17.3542 5.59667C17.3217 5.62083 16.6667 6.27833 16.6667 6.27833V13.6658C16.6667 13.6658 17.3233 14.3175 17.3542 14.3408C17.6475 14.5608 17.9942 14.6733 18.345 14.6733C18.5967 14.6733 18.85 14.615 19.0858 14.4975C19.65 14.2158 20 13.6492 20 13.0183Z" fill="#707F9B"/>
</svg>
