<svg width="20" height="20" viewBox="0 0 20 20" fill="none" xmlns="http://www.w3.org/2000/svg">
<g clip-path="url(#clip0_17_592)">
<path fill-rule="evenodd" clip-rule="evenodd" d="M18.4464 1.55366C19.3673 2.47452 19.9198 3.70018 20.0001 5V5.83333L16.7561 5.83334C16.4709 5.29319 16.1048 4.79112 15.6569 4.34317C15.2089 3.89523 14.7069 3.52918 14.1667 3.24398V0H15.0001C16.2999 0.080252 17.5255 0.6328 18.4464 1.55366ZM14.1667 3.26582V3.26584C13.1224 2.7129 11.9437 2.46783 10.743 2.5127C11.9437 2.46783 13.1224 2.71288 14.1667 3.26582ZM3.26669 14.1667H0.0350579L5.79201e-05 14.9658C-0.0030589 15.5943 0.119646 16.2171 0.360944 16.7975C0.602242 17.3778 0.957252 17.904 1.40506 18.345C1.86569 18.8441 2.42042 19.2473 3.03738 19.5313C3.65433 19.8153 4.32134 19.9746 5.00006 20H5.83339V16.7184C5.83338 16.7184 5.83337 16.7183 5.83336 16.7183V16.7561C5.29319 16.4709 4.79111 16.1048 4.34315 15.6569C3.89519 15.2089 3.52913 14.7068 3.24392 14.1667H3.26669C3.26669 14.1667 3.26669 14.1667 3.26669 14.1667ZM13.6512 16.0051C14.1072 15.6921 14.5348 15.3332 14.9267 14.9317C17.4934 12.3617 18.2076 8.62167 16.7334 5.83333L16.7334 5.83334C18.2075 8.62167 17.4934 12.3617 14.9267 14.9317C14.5348 15.3332 14.1072 15.6921 13.6512 16.0051ZM9.61835 14.1192C9.61836 14.1192 9.61836 14.1192 9.61836 14.1192C9.61837 14.1192 9.61838 14.1192 9.61839 14.1192C9.61838 14.1192 9.61837 14.1192 9.61835 14.1192ZM11.3925 11.3892L11.3925 11.3892C11.1188 11.6704 10.8047 11.9057 10.4626 12.0884C10.8047 11.9057 11.1188 11.6704 11.3925 11.3892ZM8.98089 14.1692C9.06094 14.169 9.14094 14.1666 9.2208 14.1619C9.14093 14.1666 9.06092 14.169 8.98086 14.1692C8.56279 14.1807 8.14658 14.1094 7.75625 13.9592C7.36591 13.809 7.0092 13.583 6.70669 13.2942L7.88503 12.1158C7.88503 12.1158 7.88504 12.1158 7.88504 12.1159L6.70672 13.2942C7.00923 13.583 7.36594 13.809 7.75628 13.9592C8.14661 14.1093 8.56282 14.1807 8.98089 14.1692Z" fill="#A281EA"/>
<path fill-rule="evenodd" clip-rule="evenodd" d="M16.7561 5.83334C16.4709 5.29319 16.1048 4.79112 15.6569 4.34317C15.2089 3.89522 14.7068 3.52917 14.1667 3.24396V3.26584C11.3809 1.79084 7.63919 2.50668 5.07419 5.07251C2.50919 7.63834 1.79253 11.3783 3.26669 14.1667H3.24392C3.52913 14.7068 3.89519 15.2089 4.34315 15.6569C4.79111 16.1048 5.29319 16.4709 5.83336 16.7561V16.7183C6.80111 17.2329 7.88064 17.5014 8.97669 17.5C11.2208 17.4608 13.3589 16.5379 14.9267 14.9317C17.4934 12.3617 18.2075 8.62168 16.7334 5.83334H16.7561ZM8.98086 14.1692C9.19433 14.1688 9.40745 14.1521 9.61836 14.1192C10.7414 13.9265 11.7746 13.3833 12.57 12.5675L11.3925 11.3892C10.845 11.9517 10.1362 12.3303 9.36419 12.4725C9.10697 12.5336 8.83894 12.5332 8.58192 12.4712C8.32489 12.4093 8.08612 12.2875 7.88503 12.1158L6.70669 13.2942C7.0092 13.583 7.36591 13.809 7.75625 13.9592C8.14658 14.1094 8.56279 14.1807 8.98086 14.1692Z" fill="#ED7979"/>
</g>
<defs>
<clipPath id="clip0_17_592">
<rect width="20" height="20" fill="white"/>
</clipPath>
</defs>
</svg>
