<svg width="20" height="20" viewBox="0 0 20 20" fill="none" xmlns="http://www.w3.org/2000/svg">
<g clip-path="url(#clip0_17_598)">
<path d="M19.7659 18.5873L18.868 17.6893L17.4256 16.2494L19.7509 13.924C20.0763 13.5981 20.0759 13.0703 19.75 12.7449C19.6641 12.6592 19.5606 12.5932 19.4466 12.5516L11.9686 9.83864C11.1025 9.52559 10.1466 9.97394 9.83359 10.8401C9.7013 11.2061 9.70122 11.6069 9.83336 11.9731L12.5539 19.4511C12.651 19.7188 12.878 19.9184 13.1559 19.9805C13.2154 19.9934 13.276 19.9999 13.3368 19.9997C13.558 19.9997 13.77 19.9118 13.9263 19.7554L16.2492 17.4259L17.6891 18.8658L18.5871 19.7638C18.9183 20.0836 19.4461 20.0745 19.766 19.7432C20.078 19.4201 20.078 18.9079 19.766 18.5848L19.7659 18.5873Z" fill="#656BFF"/>
<path d="M8.33759 16.6758C3.73289 16.6758 0 12.9429 0 8.33824C0 3.73354 3.73289 0.000610352 8.33759 0.000610352C12.9423 0.000610352 16.6752 3.7335 16.6752 8.33824C16.6752 8.79871 16.3019 9.17198 15.8415 9.17198C15.381 9.17198 15.0077 8.79871 15.0077 8.33824C15.0077 4.65444 12.0214 1.66814 8.33759 1.66814C4.65379 1.66814 1.66753 4.65444 1.66753 8.33824C1.66753 12.022 4.65383 15.0083 8.33763 15.0083C8.7981 15.0083 9.17137 15.3816 9.17137 15.8421C9.17137 16.3025 8.79806 16.6758 8.33759 16.6758Z" fill="#ABB5C5"/>
<path d="M6.74014 13.0236C6.63055 13.0237 6.52206 13.0021 6.42079 12.9602C3.86929 11.9005 2.65996 8.97301 3.71969 6.42147C4.77941 3.86993 7.70692 2.66064 10.2584 3.72036C11.4831 4.22902 12.4557 5.20311 12.9625 6.42855C13.1457 6.85099 12.9518 7.34198 12.5294 7.52524C12.107 7.7085 11.616 7.51461 11.4327 7.09221C11.4289 7.08337 11.4252 7.0745 11.4217 7.06555C10.7159 5.36425 8.76453 4.55728 7.06327 5.26311C5.36201 5.96894 4.555 7.92029 5.26083 9.62155C5.59885 10.4363 6.2459 11.084 7.06034 11.4228C7.48583 11.5988 7.68801 12.0865 7.5119 12.512C7.38273 12.8242 7.07797 13.0275 6.74018 13.027L6.74014 13.0236Z" fill="#ABB5C5"/>
</g>
<defs>
<clipPath id="clip0_17_598">
<rect width="20" height="20" fill="white"/>
</clipPath>
</defs>
</svg>
