<svg width="20" height="20" viewBox="0 0 20 20" fill="none" xmlns="http://www.w3.org/2000/svg">
<path d="M9.99999 13.3321C11.8403 13.3321 13.3321 11.8403 13.3321 9.99999C13.3321 8.15973 11.8403 6.66791 9.99999 6.66791C8.15973 6.66791 6.66791 8.15973 6.66791 9.99999C6.66791 11.8403 8.15973 13.3321 9.99999 13.3321Z" fill="#9E8C71"/>
<path d="M19.389 7.84998C18.097 5.74576 15.1581 2.21539 9.99998 2.21539C4.8419 2.21539 1.90299 5.74576 0.610965 7.84998C-0.203655 9.16758 -0.203655 10.8324 0.610965 12.1501C1.90299 14.2543 4.8419 17.7847 9.99998 17.7847C15.1581 17.7847 18.097 14.2543 19.389 12.1501C20.2036 10.8324 20.2036 9.16758 19.389 7.84998ZM9.99998 14.9981C7.2396 14.9981 5.00183 12.7604 5.00183 10C5.00183 7.23962 7.2396 5.00186 9.99998 5.00186C12.7604 5.00186 14.9981 7.23962 14.9981 10C14.9954 12.7593 12.7592 14.9954 9.99998 14.9981Z" fill="#DBDBDB"/>
</svg>
