<svg width="20" height="20" viewBox="0 0 20 20" fill="none" xmlns="http://www.w3.org/2000/svg">
<g clip-path="url(#clip0_17_604)">
<path d="M9.16667 12.9166C9.16667 14.0658 8.2325 14.9999 7.08333 14.9999C5.93417 14.9999 5 14.0658 5 12.9166C5 11.7674 5.93417 10.8333 7.08333 10.8333C8.2325 10.8333 9.16667 11.7674 9.16667 12.9166ZM17.1975 8.00411C16.9458 8.40495 16.7 8.79661 16.4725 9.16661H17.08C17.8433 9.16661 18.545 9.58328 18.91 10.2533C19.2758 10.9249 19.2467 11.7399 18.8325 12.3833C16.465 16.0658 12.1358 20.0008 7.08333 20.0008C5.19167 20.0008 3.41333 19.2641 2.07417 17.9266C0.736667 16.5883 0 14.8091 0 12.9174C0 7.86495 3.935 3.53495 7.6175 1.16661C8.26 0.754114 9.07667 0.724114 9.7475 1.08995C10.4175 1.45495 10.8342 2.15661 10.8342 2.91995V3.52745C11.2033 3.29995 11.595 3.05411 11.9967 2.80245C13.7267 1.71828 15.5167 0.597448 16.5933 0.175781C17.5292 -0.191719 18.5525 0.0241143 19.265 0.736614C19.9775 1.44911 20.1925 2.47328 19.8258 3.40828C19.4042 4.48495 18.2825 6.27328 17.1992 8.00495L17.1975 8.00411ZM10.8333 12.9166C10.8333 10.8491 9.15083 9.16661 7.08333 9.16661C5.01583 9.16661 3.33333 10.8491 3.33333 12.9166C3.33333 14.9841 5.01583 16.6666 7.08333 16.6666C9.15083 16.6666 10.8333 14.9841 10.8333 12.9166Z" fill="#ED7979"/>
<path fill-rule="evenodd" clip-rule="evenodd" d="M7.08333 14.9999C8.2325 14.9999 9.16667 14.0658 9.16667 12.9166C9.16667 11.7674 8.2325 10.8333 7.08333 10.8333C5.93417 10.8333 5 11.7674 5 12.9166C5 14.0658 5.93417 14.9999 7.08333 14.9999Z" fill="#FBD44A"/>
</g>
<defs>
<clipPath id="clip0_17_604">
<rect width="20" height="20" fill="white"/>
</clipPath>
</defs>
</svg>
