<svg width="20" height="20" viewBox="0 0 20 20" fill="none" xmlns="http://www.w3.org/2000/svg">
<g clip-path="url(#clip0_17_601)">
<path fill-rule="evenodd" clip-rule="evenodd" d="M13.6667 3.64001C17.9775 1.28918 21.4492 7.50917 17.3333 10C21.4767 12.5 17.9683 18.4608 13.6667 16.3633C13.5183 21.1675 6.48334 21.1717 6.33334 16.3633C2.00001 18.4625 -1.45749 12.4825 2.66667 9.95334C-1.46833 7.48834 2.05584 1.29251 6.33334 3.64001C6.47584 -1.16916 13.5225 -1.17166 13.6667 3.64001ZM7.64299 12.357C8.26811 12.9822 9.11595 13.3333 10 13.3333C10.8841 13.3333 11.7319 12.9822 12.357 12.357C12.9822 11.7319 13.3333 10.8841 13.3333 10C13.3333 9.11595 12.9822 8.26811 12.357 7.64299C11.7319 7.01786 10.8841 6.66668 10 6.66668C9.11595 6.66668 8.26811 7.01786 7.64299 7.64299C7.01786 8.26811 6.66667 9.11595 6.66667 10C6.66667 10.8841 7.01786 11.7319 7.64299 12.357Z" fill="#F1D672"/>
<path fill-rule="evenodd" clip-rule="evenodd" d="M11.1785 11.1785C11.4911 10.866 11.6667 10.442 11.6667 10C11.6667 9.55798 11.4911 9.13406 11.1785 8.8215C10.866 8.50894 10.442 8.33334 10 8.33334C9.55798 8.33334 9.13406 8.50894 8.8215 8.8215C8.50894 9.13406 8.33334 9.55798 8.33334 10C8.33334 10.442 8.50894 10.866 8.8215 11.1785C9.13406 11.4911 9.55798 11.6667 10 11.6667C10.442 11.6667 10.866 11.4911 11.1785 11.1785Z" fill="#ED7979"/>
</g>
<defs>
<clipPath id="clip0_17_601">
<rect width="20" height="20" fill="white"/>
</clipPath>
</defs>
</svg>
