<svg width="20" height="20" viewBox="0 0 20 20" fill="none" xmlns="http://www.w3.org/2000/svg">
<g clip-path="url(#clip0_17_605)">
<path fill-rule="evenodd" clip-rule="evenodd" d="M12.5 4.16667C14.3383 4.16667 15.8333 5.66167 15.8333 7.5H8.33333C5.57583 7.5 3.33333 9.7425 3.33333 12.5V15.7492C1.43417 15.3625 0 13.6783 0 11.6667V7.5C0 5.66167 1.495 4.16667 3.33333 4.16667H4.16667V3.75C4.16667 1.6825 5.84917 0 7.91667 0C9.98417 0 11.6667 1.6825 11.6667 3.75V4.16667H12.5ZM7.91667 1.66667C6.76833 1.66667 5.83333 2.60083 5.83333 3.75V4.16667H10V3.75C10 2.60083 9.065 1.66667 7.91667 1.66667Z" fill="#87B1F0"/>
<path fill-rule="evenodd" clip-rule="evenodd" d="M5 12.5C5 10.6617 6.495 9.16666 8.33333 9.16666H16.6667C18.505 9.16666 20 10.6617 20 12.5V15.8333C20 18.1308 18.1308 20 15.8333 20H9.16667C6.86917 20 5 18.1308 5 15.8333V12.5ZM12.5 16.6667C14.3383 16.6667 15.8333 15.1717 15.8333 13.3333V12.5C15.8333 12.0392 15.46 11.6667 15 11.6667C14.54 11.6667 14.1667 12.0392 14.1667 12.5V13.3333C14.1667 14.2525 13.4192 15 12.5 15C11.5808 15 10.8333 14.2525 10.8333 13.3333V12.5C10.8333 12.0392 10.46 11.6667 10 11.6667C9.54 11.6667 9.16667 12.0392 9.16667 12.5V13.3333C9.16667 15.1717 10.6617 16.6667 12.5 16.6667Z" fill="#656BFF"/>
</g>
<defs>
<clipPath id="clip0_17_605">
<rect width="20" height="20" fill="white"/>
</clipPath>
</defs>
</svg>
