<svg width="20" height="20" viewBox="0 0 20 20" fill="none" xmlns="http://www.w3.org/2000/svg">
<g clip-path="url(#clip0_17_611)">
<path fill-rule="evenodd" clip-rule="evenodd" d="M8.51837 8.33334H4.97921C4.54284 8.3329 4.12447 8.15936 3.81591 7.8508C3.50736 7.54224 3.33382 7.12387 3.33337 6.68751C3.33565 6.18468 3.48859 5.69409 3.77246 5.27906C4.05633 4.86402 4.45809 4.54361 4.92587 4.35917C5.64687 4.12133 6.29422 3.70131 6.80521 3.1398C7.3162 2.57829 7.67352 1.89433 7.84254 1.15417C7.95441 0.796203 8.18473 0.486935 8.49564 0.277188C8.80655 0.0674415 9.17956 -0.0303062 9.55337 6.83777e-06C16.5834 0.447507 16.6667 7.01751 16.6667 7.08334V15H3.33337C3.34401 14.1871 3.58869 13.3944 4.03812 12.717C4.48756 12.0395 5.12271 11.5059 5.86754 11.18C6.4858 10.9203 7.04183 10.5323 7.49883 10.0415C7.95582 9.55075 8.30334 8.96851 8.51837 8.33334Z" fill="#ABB5C5"/>
<path fill-rule="evenodd" clip-rule="evenodd" d="M16.6667 16.6667H3.33335C2.89133 16.6667 2.4674 16.8423 2.15484 17.1548C1.84228 17.4674 1.66669 17.8913 1.66669 18.3334C1.66669 18.7754 1.84228 19.1993 2.15484 19.5119C2.4674 19.8244 2.89133 20 3.33335 20H16.6667C17.1087 20 17.5326 19.8244 17.8452 19.5119C18.1578 19.1993 18.3334 18.7754 18.3334 18.3334C18.3334 17.8913 18.1578 17.4674 17.8452 17.1548C17.5326 16.8423 17.1087 16.6667 16.6667 16.6667Z" fill="#707F9B"/>
</g>
<defs>
<clipPath id="clip0_17_611">
<rect width="20" height="20" fill="white"/>
</clipPath>
</defs>
</svg>
