<svg width="20" height="20" viewBox="0 0 20 20" fill="none" xmlns="http://www.w3.org/2000/svg">
<path fill-rule="evenodd" clip-rule="evenodd" d="M10.0662 11.5994C9.48054 12.4844 9.16773 13.522 9.16669 14.5833C9.16669 16.0199 9.73737 17.3977 10.7532 18.4135C11.769 19.4293 13.1468 20 14.5834 20H5.83335C4.72869 19.9987 3.66965 19.5593 2.88854 18.7782C2.10742 17.997 1.66801 16.938 1.66669 15.8333V4.16667C1.66801 3.062 2.10742 2.00296 2.88854 1.22185C3.66965 0.440735 4.72869 0.00132321 5.83335 0H15.8334C16.4964 0 17.1323 0.263392 17.6011 0.732233C18.07 1.20107 18.3334 1.83696 18.3334 2.5V10.68C17.5675 9.94525 16.6027 9.45167 15.5587 9.26055C14.5148 9.06944 13.4377 9.18922 12.4612 9.60502C11.4848 10.0208 10.652 10.7143 10.0662 11.5994ZM6.07743 5.24408C5.92115 5.40036 5.83335 5.61232 5.83335 5.83333C5.83335 6.05435 5.92115 6.26631 6.07743 6.42259C6.23371 6.57887 6.44567 6.66667 6.66669 6.66667H13.3334C13.5544 6.66667 13.7663 6.57887 13.9226 6.42259C14.0789 6.26631 14.1667 6.05435 14.1667 5.83333C14.1667 5.61232 14.0789 5.40036 13.9226 5.24408C13.7663 5.0878 13.5544 5 13.3334 5H6.66669C6.44567 5 6.23371 5.0878 6.07743 5.24408Z" fill="#CF9C17"/>
<path fill-rule="evenodd" clip-rule="evenodd" d="M19.1667 19.9998C19.3877 19.9998 19.5996 19.9121 19.7559 19.7558C19.9121 19.5996 19.9999 19.3876 19.9999 19.1667C19.9999 18.9457 19.9121 18.7338 19.7559 18.5775L17.75 16.5717C18.1292 15.9777 18.3315 15.288 18.3334 14.5833C18.3334 13.8417 18.1134 13.1166 17.7014 12.5C17.2893 11.8833 16.7037 11.4026 16.0184 11.1188C15.3332 10.835 14.5792 10.7607 13.8518 10.9054C13.1244 11.0501 12.4562 11.4072 11.9317 11.9317C11.4073 12.4561 11.0501 13.1243 10.9054 13.8518C10.7607 14.5792 10.835 15.3332 11.1188 16.0184C11.4027 16.7036 11.8833 17.2893 12.5 17.7014C13.1167 18.1134 13.8417 18.3333 14.5834 18.3333C15.2881 18.3315 15.9777 18.1291 16.5717 17.75L18.5775 19.7558C18.7338 19.9121 18.9457 19.9998 19.1667 19.9998Z" fill="#F1D672"/>
</svg>
