<svg width="20" height="20" viewBox="0 0 20 20" fill="none" xmlns="http://www.w3.org/2000/svg">
<g clip-path="url(#clip0_17_595)">
<path fill-rule="evenodd" clip-rule="evenodd" d="M16.9892 15.4633L19.8333 6.79668C20.1374 5.74443 20.0168 4.61489 19.4974 3.65059C18.9779 2.68629 18.101 1.96413 17.055 1.63918L12.3167 0.184182C11.4994 -0.0614102 10.6266 -0.0509988 9.81549 0.214018C9.00435 0.479034 8.29376 0.985959 7.77917 1.66668H9.16667C10.7132 1.66845 12.1959 2.2836 13.2895 3.37718C14.3831 4.47076 14.9982 5.95346 15 7.50002V15.8334C15.0008 16.623 14.8406 17.4044 14.5292 18.13C15.1155 17.9027 15.642 17.5442 16.0684 17.082C16.4948 16.6198 16.8098 16.0661 16.9892 15.4633Z" fill="#D9D9D9"/>
<path fill-rule="evenodd" clip-rule="evenodd" d="M13.3333 15.8334V7.50004C13.332 6.39538 12.8926 5.33634 12.1115 4.55522C11.3304 3.77411 10.2713 3.3347 9.16667 3.33337H4.16667C3.062 3.3347 2.00296 3.77411 1.22185 4.55522C0.440735 5.33634 0.00132321 6.39538 0 7.50004V15.8334C0.00132321 16.938 0.440735 17.9971 1.22185 18.7782C2.00296 19.5593 3.062 19.9987 4.16667 20H9.16667C10.2713 19.9987 11.3304 19.5593 12.1115 18.7782C12.8926 17.9971 13.332 16.938 13.3333 15.8334ZM9.51184 9.65486C9.8244 9.96742 10 10.3913 10 10.8334C10 12.0417 8.71333 13.6592 7.73833 14.4817C7.43877 14.7352 7.05907 14.8742 6.66667 14.8742C6.27427 14.8742 5.89457 14.7352 5.595 14.4817C4.62 13.6592 3.33333 12.0417 3.33333 10.8334C3.33333 10.3913 3.50893 9.96742 3.82149 9.65486C4.13405 9.3423 4.55797 9.16671 5 9.16671C5.44203 9.16671 5.86595 9.3423 6.17851 9.65486C6.49107 9.96742 6.66667 10.3913 6.66667 10.8334C6.66667 10.3913 6.84226 9.96742 7.15482 9.65486C7.46738 9.3423 7.89131 9.16671 8.33333 9.16671C8.77536 9.16671 9.19928 9.3423 9.51184 9.65486Z" fill="#ED7979"/>
</g>
<defs>
<clipPath id="clip0_17_595">
<rect width="20" height="20" fill="white"/>
</clipPath>
</defs>
</svg>
