<svg width="20" height="20" viewBox="0 0 20 20" fill="none" xmlns="http://www.w3.org/2000/svg">
<g clip-path="url(#clip0_17_603)">
<path fill-rule="evenodd" clip-rule="evenodd" d="M6.39082 19.9833C6.74999 19.9833 7.12582 19.96 7.49999 19.9267L0.0691556 12.5C-0.145011 14.9242 0.318322 17.1483 1.58332 18.4167C2.92257 19.5416 4.64593 20.1032 6.39082 19.9833ZM18.4167 1.58333C19.6125 2.78249 20.0833 4.83833 19.9542 7.10916L12.8925 0.0441602C15.1667 -0.0833398 17.2208 0.38416 18.4167 1.58333Z" fill="#7E621A"/>
<path fill-rule="evenodd" clip-rule="evenodd" d="M16.1233 16.1233C17.9364 14.1912 19.1672 11.7865 19.6741 9.18584L10.8141 0.325836C8.21349 0.832783 5.80878 2.06359 3.87665 3.87667C2.14113 5.718 0.938062 7.99596 0.395813 10.4675L9.52081 19.5925C11.9957 19.0567 14.2781 17.8575 16.1233 16.1233ZM11.4241 5.24417L14.7575 8.5775H14.7558C14.9076 8.73467 14.9916 8.94517 14.9897 9.16367C14.9878 9.38217 14.9002 9.59118 14.7457 9.74569C14.5912 9.90019 14.3821 9.98783 14.1636 9.98973C13.9451 9.99163 13.7346 9.90764 13.5775 9.75584L12.5 8.67834L11.1783 10L12.2558 11.0775C12.4076 11.2347 12.4916 11.4452 12.4897 11.6637C12.4878 11.8822 12.4002 12.0912 12.2457 12.2457C12.0912 12.4002 11.8821 12.4878 11.6636 12.4897C11.4451 12.4916 11.2346 12.4076 11.0775 12.2558L9.99998 11.1783L8.67831 12.5L9.75581 13.5775C9.90761 13.7347 9.99161 13.9452 9.98971 14.1637C9.98781 14.3822 9.90017 14.5912 9.74566 14.7457C9.59116 14.9002 9.38214 14.9878 9.16365 14.9897C8.94515 14.9916 8.73465 14.9076 8.57748 14.7558L5.24415 11.4225C5.09235 11.2653 5.00835 11.0548 5.01025 10.8363C5.01215 10.6178 5.09979 10.4088 5.2543 10.2543C5.4088 10.0998 5.61781 10.0122 5.83631 10.0103C6.05481 10.0084 6.26531 10.0924 6.42248 10.2442L7.49998 11.3217L8.82165 10L7.74415 8.9225C7.59235 8.76534 7.50835 8.55483 7.51025 8.33634C7.51215 8.11784 7.59979 7.90883 7.7543 7.75432C7.9088 7.59981 8.11782 7.51217 8.33631 7.51028C8.55481 7.50838 8.76531 7.59237 8.92248 7.74417L9.99998 8.82167L11.3216 7.5L10.2458 6.4225C10.094 6.26533 10.01 6.05483 10.0119 5.83634C10.0138 5.61784 10.1015 5.40883 10.256 5.25432C10.4105 5.09981 10.6195 5.01217 10.838 5.01027C11.0565 5.00838 11.267 5.09237 11.4241 5.24417Z" fill="#CF9C17"/>
</g>
<defs>
<clipPath id="clip0_17_603">
<rect width="20" height="20" fill="white"/>
</clipPath>
</defs>
</svg>
