<svg width="20" height="20" viewBox="0 0 20 20" fill="none" xmlns="http://www.w3.org/2000/svg">
<g clip-path="url(#clip0_17_594)">
<path fill-rule="evenodd" clip-rule="evenodd" d="M14.7392 15.8242L19.86 3.06084H19.8633C20.0124 2.65106 20.0407 2.20712 19.945 1.78171C19.8492 1.35631 19.6334 0.967312 19.3232 0.660917C19.0129 0.354521 18.6213 0.143594 18.1947 0.0531788C17.7681 -0.0372362 17.3246 -0.00334099 16.9167 0.15084L4.17584 5.26167C4.27168 11.9908 8.01084 15.7283 14.7392 15.8242ZM10.3452 7.98816C10.6577 8.30072 10.8333 8.72465 10.8333 9.16667C10.8333 9.6087 10.6577 10.0326 10.3452 10.3452C10.0326 10.6577 9.6087 10.8333 9.16668 10.8333C8.72465 10.8333 8.30072 10.6577 7.98816 10.3452C7.6756 10.0326 7.50001 9.6087 7.50001 9.16667C7.50001 8.72465 7.6756 8.30072 7.98816 7.98816C8.30072 7.6756 8.72465 7.50001 9.16668 7.50001C9.6087 7.50001 10.0326 7.6756 10.3452 7.98816ZM17.1917 5.23584L15.6533 9.06917C15.3792 8.985 15.1255 8.84484 14.9083 8.65758C14.6911 8.47032 14.5152 8.24002 14.3916 7.98126C14.268 7.72249 14.1994 7.44089 14.1903 7.15427C14.1811 6.86765 14.2315 6.58224 14.3383 6.3161C14.4451 6.04996 14.606 5.80888 14.8107 5.60811C15.0155 5.40735 15.2597 5.25126 15.5279 5.14972C15.7961 5.04819 16.0824 5.00342 16.3688 5.01824C16.6552 5.03306 16.9354 5.10716 17.1917 5.23584Z" fill="#ED7979"/>
<path fill-rule="evenodd" clip-rule="evenodd" d="M13.0633 20L14.0833 17.465C7.1175 17.1217 2.87833 12.8825 2.535 5.91669L0 6.93669V7.50002C0.00374956 10.8141 1.32191 13.9913 3.66531 16.3347C6.0087 18.6781 9.18594 19.9963 12.5 20H13.0633Z" fill="#AAE197"/>
</g>
<defs>
<clipPath id="clip0_17_594">
<rect width="20" height="20" fill="white"/>
</clipPath>
</defs>
</svg>
