<svg width="20" height="20" viewBox="0 0 20 20" fill="none" xmlns="http://www.w3.org/2000/svg">
<g clip-path="url(#clip0_17_616)">
<path fill-rule="evenodd" clip-rule="evenodd" d="M2.93562 10.0366C3.34076 11.1624 4.01114 12.174 4.89002 12.9858C5.50187 13.5464 5.98394 14.2338 6.30252 15H9.16669V9.01334C8.68093 8.84161 8.2601 8.52398 7.96176 8.10393C7.66342 7.68387 7.50216 7.18189 7.50002 6.66668C7.50002 6.44566 7.58782 6.2337 7.7441 6.07742C7.90038 5.92114 8.11234 5.83334 8.33335 5.83334C8.55437 5.83334 8.76633 5.92114 8.92261 6.07742C9.07889 6.2337 9.16669 6.44566 9.16669 6.66668C9.16669 6.88769 9.25449 7.09965 9.41077 7.25593C9.56705 7.41221 9.77901 7.50001 10 7.50001C10.221 7.50001 10.433 7.41221 10.5893 7.25593C10.7456 7.09965 10.8334 6.88769 10.8334 6.66668C10.8334 6.44566 10.9212 6.2337 11.0774 6.07742C11.2337 5.92114 11.4457 5.83334 11.6667 5.83334C11.8877 5.83334 12.0997 5.92114 12.2559 6.07742C12.4122 6.2337 12.5 6.44566 12.5 6.66668C12.4979 7.18189 12.3366 7.68387 12.0383 8.10393C11.7399 8.52398 11.3191 8.84161 10.8334 9.01334V15H13.615C13.9004 14.2803 14.3563 13.6406 14.9434 13.1358C15.8551 12.3363 16.5594 11.3276 16.9958 10.1962C17.4323 9.06486 17.5879 7.84452 17.4493 6.63982C17.3107 5.43511 16.8821 4.28198 16.2001 3.27925C15.5182 2.27651 14.6033 1.45409 13.5338 0.882465C12.4643 0.31084 11.2722 0.00706203 10.0596 -0.00283256C8.847 -0.0127272 7.65007 0.271557 6.57142 0.825654C5.49277 1.37975 4.56456 2.18714 3.86635 3.17861C3.16813 4.17008 2.72074 5.31606 2.56252 6.51834C2.4025 7.70405 2.53048 8.91086 2.93562 10.0366Z" fill="#F1D672"/>
<path fill-rule="evenodd" clip-rule="evenodd" d="M6.66669 16.925V16.6667H13.3334V16.925C13.3325 17.7403 13.0082 18.5219 12.4317 19.0984C11.8552 19.6749 11.0736 19.9991 10.2584 20H9.74169C8.92642 19.9991 8.14479 19.6749 7.56831 19.0984C6.99182 18.5219 6.66757 17.7403 6.66669 16.925Z" fill="#CF9C17"/>
</g>
<defs>
<clipPath id="clip0_17_616">
<rect width="20" height="20" fill="white"/>
</clipPath>
</defs>
</svg>
