<svg width="20" height="20" viewBox="0 0 20 20" fill="none" xmlns="http://www.w3.org/2000/svg">
<g clip-path="url(#clip0_17_596)">
<path d="M18.9775 6.4342C18.5867 5.98387 18.1038 5.62276 17.5613 5.37533C17.0188 5.12789 16.4296 4.9999 15.8333 5.00003H12.5092L12.7892 3.2992C12.8882 2.70025 12.7687 2.08564 12.4524 1.56748C12.1361 1.04932 11.644 0.662124 11.066 0.476523C10.488 0.290922 9.86249 0.31928 9.30364 0.556426C8.74478 0.793571 8.28979 1.2237 8.02166 1.76836L6.66666 4.5142V17.5H15.25C16.2529 17.4959 17.221 17.132 17.9782 16.4743C18.7353 15.8167 19.2313 14.9091 19.3758 13.9167L19.9633 9.75003C20.0464 9.15897 20.0014 8.55695 19.8313 7.98483C19.6612 7.41271 19.37 6.88387 18.9775 6.4342Z" fill="#87B1F0"/>
<path d="M0 9.16667V13.3333C0.00132321 14.438 0.440735 15.497 1.22185 16.2782C2.00296 17.0593 3.062 17.4987 4.16667 17.5H5V5H4.16667C3.062 5.00132 2.00296 5.44073 1.22185 6.22185C0.440735 7.00296 0.00132321 8.062 0 9.16667H0Z" fill="#707F9B"/>
</g>
<defs>
<clipPath id="clip0_17_596">
<rect width="20" height="20" fill="white"/>
</clipPath>
</defs>
</svg>
