<svg width="20" height="20" viewBox="0 0 20 20" fill="none" xmlns="http://www.w3.org/2000/svg">
<g clip-path="url(#clip0_17_610)">
<path d="M15.5942 10H11.6667C10.7462 10 10 9.25379 10 8.33332V4.395C10.0023 3.61805 9.6432 2.88414 9.02832 2.40918C8.44566 1.94777 7.68168 1.78332 6.96082 1.96418C2.06121 3.18043 -0.924767 8.13836 0.291522 13.038C1.14844 16.49 3.93 19.1316 7.42168 19.8092C12.1916 20.7222 16.8458 17.7566 18.0334 13.0475C18.2149 12.3257 18.0507 11.5605 17.5892 10.9767C17.1087 10.3629 16.3736 10.003 15.5942 10Z" fill="#87B1F0"/>
<path d="M19.7092 6.205C19.5189 5.49789 19.2356 4.81918 18.8667 4.18668C17.7569 2.28285 15.9441 0.890781 13.8184 0.31C13.6783 0.272227 13.365 0.25 13.365 0.25C13.253 0.250039 12.7709 0.25 12.3892 0.55918C11.8282 1.00062 11.74 1.5025 11.7317 1.54168C11.7026 1.66457 11.6875 1.79039 11.6867 1.91668V5.83336C11.6867 7.21406 12.806 8.33336 14.1867 8.33336H18.1192C18.6409 8.33484 19.132 8.08715 19.4409 7.66668C19.6693 7.35867 19.7868 6.98242 19.7742 6.59918C19.7675 6.46574 19.7457 6.33348 19.7092 6.205Z" fill="#ED7979"/>
</g>
<defs>
<clipPath id="clip0_17_610">
<rect width="20" height="20" fill="white"/>
</clipPath>
</defs>
</svg>
