<svg width="20" height="20" viewBox="0 0 20 20" fill="none" xmlns="http://www.w3.org/2000/svg">
<g clip-path="url(#clip0_17_587)">
<path d="M4.16665 15.8333H9.16665V17.5H5.83331C5.6123 17.5 5.40034 17.5878 5.24406 17.7441C5.08778 17.9004 4.99998 18.1123 4.99998 18.3333C4.99998 18.5543 5.08778 18.7663 5.24406 18.9226C5.40034 19.0789 5.6123 19.1667 5.83331 19.1667H14.1666C14.3877 19.1667 14.5996 19.0789 14.7559 18.9226C14.9122 18.7663 15 18.5543 15 18.3333C15 18.1123 14.9122 17.9004 14.7559 17.7441C14.5996 17.5878 14.3877 17.5 14.1666 17.5H10.8333V15.8333H15.8333C16.7935 15.8321 17.7239 15.4999 18.4677 14.8927C19.2115 14.2855 19.7232 13.4405 19.9166 12.5H0.083313C0.276727 13.4405 0.788463 14.2855 1.53227 14.8927C2.27608 15.4999 3.20648 15.8321 4.16665 15.8333Z" fill="#ABB5C5"/>
<path d="M15.8333 0.833344H4.16667C3.062 0.834667 2.00296 1.27408 1.22185 2.05519C0.440735 2.83631 0.00132321 3.89535 0 5.00001L0 10.8333H20V5.00001C19.9987 3.89535 19.5593 2.83631 18.7782 2.05519C17.997 1.27408 16.938 0.834667 15.8333 0.833344Z" fill="#707F9B"/>
</g>
<defs>
<clipPath id="clip0_17_587">
<rect width="20" height="20" fill="white"/>
</clipPath>
</defs>
</svg>
