<svg width="20" height="20" viewBox="0 0 20 20" fill="none" xmlns="http://www.w3.org/2000/svg">
<g clip-path="url(#clip0_17_612)">
<path fill-rule="evenodd" clip-rule="evenodd" d="M5.83333 16.25V13.75C5.83466 12.3138 6.40577 10.9368 7.4213 9.92131C8.43684 8.90577 9.81382 8.33466 11.25 8.33334H13.8625L14.1067 6.39167C14.1853 6.02645 14.1816 5.6483 14.0957 5.28471C14.0099 4.92112 13.8441 4.58123 13.6104 4.28976C13.3767 3.99829 13.081 3.76255 12.7448 3.59971C12.4085 3.43686 12.0402 3.35099 11.6667 3.34834H9.6925C9.70547 3.2554 9.71544 3.15404 9.7258 3.04867C9.78672 2.42939 9.86125 1.67167 10.6375 1.67167H13.3333C13.5543 1.67167 13.7663 1.58387 13.9226 1.42759C14.0789 1.27131 14.1667 1.05935 14.1667 0.838338C14.1667 0.617324 14.0789 0.405363 13.9226 0.249083C13.7663 0.0928022 13.5543 0.00500488 13.3333 0.00500488H10.6375C10.0285 0.00535434 9.44064 0.22796 8.98417 0.631035C8.5277 1.03411 8.23405 1.58994 8.15833 2.19417L8.01417 3.34751H2.5C2.13395 3.35129 1.77314 3.43488 1.44272 3.59245C1.1123 3.75002 0.820235 3.97778 0.586893 4.25984C0.353551 4.5419 0.18455 4.87146 0.0916779 5.22555C-0.00119416 5.57964 -0.0157015 5.94973 0.0491676 6.31001L1.31 16.3583C1.43677 17.3655 1.9265 18.2919 2.68742 18.9639C3.44834 19.6358 4.4282 20.0072 5.44333 20.0083H7.36C6.38119 19.0021 5.83348 17.6538 5.83333 16.25ZM9.2775 6.66667L9.48333 5.01501L11.6667 5.01334C11.798 5.01439 11.9272 5.04612 12.0441 5.106C12.161 5.16589 12.2623 5.25227 12.3398 5.35824C12.4174 5.46422 12.4691 5.58685 12.4908 5.71637C12.5126 5.84588 12.5037 5.97868 12.465 6.10417L12.3942 6.66667H9.2775ZM7.80583 5.01167L7.59833 6.66667H1.76917L1.68583 6.02501C1.65985 5.90328 1.66129 5.7773 1.69007 5.6562C1.71884 5.53511 1.77421 5.42194 1.85217 5.32491C1.93013 5.22788 2.02871 5.14943 2.14077 5.09525C2.25282 5.04107 2.37554 5.01252 2.5 5.01167H7.80583Z" fill="#ED7979"/>
<path fill-rule="evenodd" clip-rule="evenodd" d="M20 14.1667V13.75C20 12.7554 19.6049 11.8016 18.9017 11.0983C18.1984 10.3951 17.2446 10 16.25 10H11.25C10.7226 10.0037 10.2017 10.1173 9.72059 10.3336C9.23951 10.5499 8.8088 10.8641 8.45595 11.2562C8.10309 11.6482 7.83584 12.1096 7.67125 12.6107C7.50666 13.1118 7.44833 13.6417 7.5 14.1667H20ZM14.7046 17.4973C14.869 17.4973 15.0298 17.4487 15.1667 17.3575L17.4583 15.8333H20C20.0517 16.3583 19.9934 16.8882 19.8288 17.3893C19.6642 17.8904 19.3969 18.3518 19.0441 18.7438C18.6912 19.1359 18.2605 19.4501 17.7794 19.6664C17.2983 19.8827 16.7775 19.9963 16.25 20H11.25C10.7226 19.9962 10.2018 19.8824 9.72075 19.6661C9.23973 19.4498 8.80908 19.1356 8.45625 18.7435C8.10342 18.3515 7.83616 17.8903 7.67152 17.3892C7.50688 16.8881 7.44846 16.3582 7.5 15.8333H11.9525L14.2425 17.3575C14.3794 17.4487 14.5401 17.4973 14.7046 17.4973Z" fill="#F1D672"/>
</g>
<defs>
<clipPath id="clip0_17_612">
<rect width="20" height="20" fill="white"/>
</clipPath>
</defs>
</svg>
