<svg width="20" height="20" viewBox="0 0 20 20" fill="none" xmlns="http://www.w3.org/2000/svg">
<g clip-path="url(#clip0_17_585)">
<path fill-rule="evenodd" clip-rule="evenodd" d="M2.5 18.3333V17.5H15.8333V18.3333C15.8333 18.7754 15.6577 19.1993 15.3452 19.5118C15.0326 19.8244 14.6087 20 14.1667 20H4.16667C3.72464 20 3.30072 19.8244 2.98816 19.5118C2.67559 19.1993 2.5 18.7754 2.5 18.3333Z" fill="black"/>
<path fill-rule="evenodd" clip-rule="evenodd" d="M1.26087 3.64664C0.971166 4.36134 0.825861 5.12635 0.833344 5.8975C0.846404 6.32951 1.0282 6.73921 1.33975 7.03877C1.65131 7.33833 2.06782 7.5039 2.50001 7.5H10C10.221 7.5 10.433 7.5878 10.5893 7.74408C10.7455 7.90036 10.8333 8.11232 10.8333 8.33333C10.8333 8.55435 10.7455 8.76631 10.5893 8.92259C10.433 9.07887 10.221 9.16667 10 9.16667H2.50001C1.91313 9.16321 1.3378 9.00327 0.833344 8.70333V11.5575C0.833117 12.9269 1.25505 14.2632 2.04168 15.3842L2.35584 15.8333H16.46C17.2669 15.2804 17.9324 14.5454 18.4026 13.6876C18.8728 12.8299 19.1346 11.8735 19.1667 10.8958V8.33333C19.1672 7.99343 19.0983 7.65699 18.9644 7.34459C18.8305 7.03218 18.6342 6.75038 18.3877 6.51639C18.1411 6.2824 17.8494 6.10114 17.5305 5.9837C17.2115 5.86626 16.8719 5.81509 16.5325 5.83333C15.8766 5.89133 15.2673 6.1965 14.828 6.68701C14.3887 7.17752 14.1523 7.81669 14.1667 8.475V11.6667C14.1667 11.8877 14.0789 12.0996 13.9226 12.2559C13.7663 12.4122 13.5544 12.5 13.3333 12.5C13.1123 12.5 12.9004 12.4122 12.7441 12.2559C12.5878 12.0996 12.5 11.8877 12.5 11.6667V8.33333C12.503 7.27224 12.9113 6.25239 13.6414 5.48237C14.3714 4.71234 15.3681 4.25033 16.4275 4.19083C16.0715 2.98252 15.3345 1.92164 14.3264 1.1664C13.3183 0.411164 12.093 0.00202472 10.8333 0H6.66668C5.89549 0.000953956 5.13212 0.154619 4.42063 0.452128C3.70914 0.749638 3.0636 1.1851 2.52128 1.73339C1.97896 2.28168 1.55058 2.93194 1.26087 3.64664Z" fill="#ED7979"/>
</g>
<defs>
<clipPath id="clip0_17_585">
<rect width="20" height="20" fill="white"/>
</clipPath>
</defs>
</svg>
