<svg width="20" height="20" viewBox="0 0 20 20" fill="none" xmlns="http://www.w3.org/2000/svg">
<g clip-path="url(#clip0_17_606)">
<path d="M6.18665 17.5C6.5097 18.2428 7.04267 18.8751 7.72011 19.3193C8.39754 19.7634 9.18994 20 9.99998 20C10.81 20 11.6024 19.7634 12.2799 19.3193C12.9573 18.8751 13.4903 18.2428 13.8133 17.5H6.18665Z" fill="#ED7979"/>
<path d="M18.66 10.4575L17.2133 5.68834C16.75 4.02029 15.7428 2.55481 14.3515 1.52459C12.9603 0.49436 11.2647 -0.0415661 9.53406 0.00190092C7.80342 0.0453679 6.1369 0.665736 4.7991 1.76451C3.46131 2.86328 2.52891 4.37747 2.14996 6.06667L1.02663 10.6808C0.877323 11.294 0.869234 11.933 1.00297 12.5497C1.13671 13.1664 1.40878 13.7447 1.79865 14.2409C2.18852 14.7371 2.686 15.1383 3.25356 15.4141C3.82112 15.69 4.44392 15.8333 5.07496 15.8333H14.6725C15.3231 15.8334 15.9647 15.681 16.5458 15.3885C17.127 15.096 17.6315 14.6715 18.0192 14.149C18.4068 13.6264 18.6666 13.0203 18.7779 12.3793C18.8892 11.7383 18.8488 11.0801 18.66 10.4575Z" fill="#F1D672"/>
</g>
<defs>
<clipPath id="clip0_17_606">
<rect width="20" height="20" fill="white"/>
</clipPath>
</defs>
</svg>
