<svg width="20" height="20" viewBox="0 0 20 20" fill="none" xmlns="http://www.w3.org/2000/svg">
<g clip-path="url(#clip0_17_586)">
<path fill-rule="evenodd" clip-rule="evenodd" d="M0 5.82581L19.8858 5.73331C19.675 4.81581 19.1596 3.99677 18.4237 3.40962C17.6878 2.82248 16.7748 2.50185 15.8333 2.49998H10.3933C10.2645 2.50083 10.1371 2.47233 10.0208 2.41665L7.39083 1.09665C7.04366 0.923767 6.66117 0.833635 6.27333 0.833313H4.16667C3.062 0.834636 2.00296 1.27405 1.22185 2.05516C0.440735 2.83628 0.00132321 3.89532 0 4.99998V5.82581Z" fill="#CF9C17"/>
<path fill-rule="evenodd" clip-rule="evenodd" d="M20 15V7.39996L0 7.49246V15C0.00132321 16.1046 0.440735 17.1637 1.22185 17.9448C2.00296 18.7259 3.062 19.1653 4.16667 19.1666H15.8333C16.938 19.1653 17.997 18.7259 18.7782 17.9448C19.5593 17.1637 19.9987 16.1046 20 15ZM13.0893 12.744C13.2455 12.9003 13.3333 13.1123 13.3333 13.3333C13.3333 13.5543 13.2455 13.7663 13.0893 13.9226C12.933 14.0788 12.721 14.1666 12.5 14.1666H10.8333V15.8333C10.8333 16.0543 10.7455 16.2663 10.5893 16.4226C10.433 16.5788 10.221 16.6666 10 16.6666C9.77899 16.6666 9.56702 16.5788 9.41074 16.4226C9.25446 16.2663 9.16667 16.0543 9.16667 15.8333V14.1666H7.5C7.27899 14.1666 7.06702 14.0788 6.91074 13.9226C6.75446 13.7663 6.66667 13.5543 6.66667 13.3333C6.66667 13.1123 6.75446 12.9003 6.91074 12.744C7.06702 12.5878 7.27899 12.5 7.5 12.5H9.16667V10.8333C9.16667 10.6123 9.25446 10.4003 9.41074 10.244C9.56702 10.0878 9.77899 9.99996 10 9.99996C10.221 9.99996 10.433 10.0878 10.5893 10.244C10.7455 10.4003 10.8333 10.6123 10.8333 10.8333V12.5H12.5C12.721 12.5 12.933 12.5878 13.0893 12.744Z" fill="#F1D672"/>
</g>
<defs>
<clipPath id="clip0_17_586">
<rect width="20" height="20" fill="white"/>
</clipPath>
</defs>
</svg>
