<svg width="20" height="20" viewBox="0 0 20 20" fill="none" xmlns="http://www.w3.org/2000/svg">
<g clip-path="url(#clip0_17_581)">
<path fill-rule="evenodd" clip-rule="evenodd" d="M6.25 3.75C6.25 5.8175 7.9325 7.5 10 7.5C12.0675 7.5 13.75 5.8175 13.75 3.75C13.75 1.6825 12.0675 0 10 0C7.9325 0 6.25 1.6825 6.25 3.75Z" fill="#707F9B"/>
<path fill-rule="evenodd" clip-rule="evenodd" d="M15.0392 8.41085C16.3125 8.17835 17.5525 8.50751 18.5033 9.30168H18.5008C19.4525 10.095 19.9975 11.2608 19.9975 12.5V14.8267C19.9975 16.8408 18.5592 18.565 16.5767 18.9258L11.3392 19.8783C10.8942 19.96 10.4467 20 9.99834 20C9.55001 20 9.10251 19.9592 8.65751 19.8783L3.42001 18.9258C1.43834 18.565 -0.000823975 16.8408 -0.000823975 14.8267V12.5C-0.000823975 11.2617 0.544176 10.0958 1.49584 9.30168C2.44834 8.50751 3.69168 8.18168 4.91168 8.40085L6.47834 8.78168C8.01584 9.06001 9.16668 10.4392 9.16668 12.0508V18.2733C9.72001 18.3542 10.28 18.3542 10.8333 18.2733V12.0508C10.8333 10.4392 11.9842 9.06001 13.5692 8.77084L15.0392 8.41085Z" fill="#87B1F0"/>
</g>
<defs>
<clipPath id="clip0_17_581">
<rect width="20" height="20" fill="white"/>
</clipPath>
</defs>
</svg>
