<svg width="20" height="20" viewBox="0 0 20 20" fill="none" xmlns="http://www.w3.org/2000/svg">
<g clip-path="url(#clip0_17_597)">
<path fill-rule="evenodd" clip-rule="evenodd" d="M15.7826 19.8571C15.9206 19.9503 16.0834 20.0001 16.2499 20C16.4169 19.9999 16.58 19.9496 16.718 19.8557C16.856 19.7618 16.9627 19.6286 17.0241 19.4733L17.7249 17.7233L19.475 17.0225C19.6276 16.9586 19.758 16.8511 19.8497 16.7133C19.9414 16.5756 19.9903 16.4138 19.9903 16.2483C19.9903 16.0829 19.9414 15.9211 19.8497 15.7833C19.758 15.6456 19.6276 15.538 19.475 15.4742L17.7249 14.7733L17.0241 13.0233C16.96 12.871 16.8523 12.741 16.7146 12.6495C16.5769 12.5581 16.4152 12.5093 16.2499 12.5093C16.0846 12.5093 15.923 12.5581 15.7853 12.6495C15.6476 12.741 15.5399 12.871 15.4758 13.0233L14.7783 14.7667L13.0383 15.4258C12.8846 15.4869 12.7524 15.592 12.6583 15.7279C12.5641 15.8638 12.5122 16.0246 12.5091 16.1899C12.506 16.3552 12.5518 16.5178 12.6408 16.6572C12.7297 16.7965 12.8579 16.9065 13.0091 16.9733L14.7724 17.7158L15.4758 19.4767C15.5377 19.6313 15.6446 19.7638 15.7826 19.8571ZM16.5706 5.65696C16.7171 5.77125 16.8975 5.83333 17.0833 5.83334C17.2691 5.83333 17.4495 5.77125 17.596 5.65696C17.7424 5.54266 17.8465 5.38271 17.8916 5.2025L18.1866 4.02084L19.3683 3.725C19.5485 3.67984 19.7084 3.57577 19.8227 3.42932C19.937 3.28287 19.999 3.10243 19.999 2.91667C19.999 2.73091 19.937 2.55047 19.8227 2.40402C19.7084 2.25757 19.5485 2.1535 19.3683 2.10834L18.1866 1.8125L17.8916 0.630838C17.8465 0.450648 17.7424 0.290714 17.5959 0.176437C17.4495 0.0621592 17.269 9.15527e-05 17.0833 9.15527e-05C16.8975 9.15527e-05 16.7171 0.0621592 16.5706 0.176437C16.4242 0.290714 16.3201 0.450648 16.275 0.630838L15.9783 1.8025L14.8116 2.07334C14.6306 2.11524 14.4687 2.21647 14.3518 2.36093C14.2348 2.50539 14.1696 2.68479 14.1663 2.87061C14.163 3.05643 14.222 3.23801 14.3338 3.38648C14.4456 3.53494 14.6038 3.64178 14.7833 3.69L15.9774 4.01084L16.275 5.2025C16.3201 5.38271 16.4242 5.54266 16.5706 5.65696Z" fill="#FBD44A"/>
<path fill-rule="evenodd" clip-rule="evenodd" d="M7.33071 17.1797C7.62154 17.392 7.97328 17.5043 8.3333 17.5C8.69333 17.5043 9.04507 17.392 9.33589 17.1797C9.62672 16.9674 9.84099 16.6667 9.94664 16.3225L11.29 12.1233L15.4891 10.78C15.8272 10.6666 16.1212 10.4499 16.3294 10.1604C16.5376 9.87088 16.6497 9.52328 16.6497 9.16668C16.6497 8.81007 16.5376 8.46248 16.3294 8.17299C16.1212 7.8835 15.8272 7.66675 15.4891 7.55335L11.2975 6.21168L10.0208 2.03251C9.9198 1.68688 9.70958 1.38326 9.4216 1.16709C9.13363 0.950925 8.78339 0.833833 8.4233 0.833345C8.06214 0.818179 7.70619 0.923494 7.41143 1.13273C7.11666 1.34196 6.89981 1.64324 6.79497 1.98918L5.38497 6.20085L1.19914 7.47918C0.855671 7.58381 0.554354 7.79491 0.338707 8.08199C0.123059 8.36906 0.00424318 8.71725 -0.000579579 9.07627C-0.00540233 9.43529 0.104018 9.78654 0.311876 10.0793C0.519735 10.3721 0.815272 10.5912 1.1558 10.705L5.37497 12.1167L6.71997 16.3225C6.82562 16.6667 7.03989 16.9674 7.33071 17.1797Z" fill="#FFA927"/>
</g>
<defs>
<clipPath id="clip0_17_597">
<rect width="20" height="20" fill="white"/>
</clipPath>
</defs>
</svg>
