<svg width="20" height="20" viewBox="0 0 20 20" fill="none" xmlns="http://www.w3.org/2000/svg">
<g clip-path="url(#clip0_17_614)">
<path fill-rule="evenodd" clip-rule="evenodd" d="M10.4908 20H17.8767C18.2502 20.0027 18.6179 19.907 18.9427 19.7223C19.2675 19.5377 19.5379 19.2707 19.7267 18.9483C19.9118 18.6371 20.0115 18.2824 20.0156 17.9202C20.0197 17.5581 19.9281 17.2012 19.75 16.8858L16.0625 10.2583C15.8721 9.92962 15.5987 9.65672 15.2696 9.467C14.9405 9.27728 14.5674 9.17741 14.1875 9.17741C13.8076 9.17741 13.4345 9.27728 13.1054 9.467C12.7763 9.65672 12.5028 9.92962 12.3125 10.2583L8.61583 16.8908C8.4381 17.2058 8.34674 17.5621 8.35098 17.9237C8.35523 18.2853 8.45493 18.6393 8.64 18.95C8.82885 19.2724 9.09942 19.5392 9.42439 19.7236C9.74936 19.908 10.1172 20.0033 10.4908 20ZM6.68342 17.9451C6.69118 18.5967 6.8705 19.2348 7.20333 19.795C7.24417 19.865 7.2875 19.9333 7.33333 20H2.79167C2.30833 19.9995 1.8334 19.8735 1.41334 19.6344C0.993276 19.3954 0.642461 19.0513 0.395208 18.636C0.147955 18.2207 0.0127306 17.7483 0.00276098 17.2651C-0.00720863 16.7819 0.108418 16.3043 0.338332 15.8792L5.8825 5.62918C6.1213 5.18688 6.47529 4.81741 6.90697 4.5599C7.33865 4.3024 7.83194 4.16644 8.33458 4.16644C8.83723 4.16644 9.33052 4.3024 9.76219 4.5599C10.1939 4.81741 10.5479 5.18688 10.7867 5.62918L12.1125 8.11251C11.59 8.44799 11.1586 8.90746 10.8567 9.45001L7.15917 16.0833C6.83976 16.6513 6.67567 17.2935 6.68342 17.9451Z" fill="#AAE197"/>
<path fill-rule="evenodd" clip-rule="evenodd" d="M14.3097 5.69036C14.9348 6.31548 15.7826 6.66667 16.6667 6.66667C17.5507 6.66667 18.3986 6.31548 19.0237 5.69036C19.6488 5.06524 20 4.21739 20 3.33333C20 2.44928 19.6488 1.60143 19.0237 0.976311C18.3986 0.35119 17.5507 0 16.6667 0C15.7826 0 14.9348 0.35119 14.3097 0.976311C13.6845 1.60143 13.3333 2.44928 13.3333 3.33333C13.3333 4.21739 13.6845 5.06524 14.3097 5.69036Z" fill="#F1D672"/>
</g>
<defs>
<clipPath id="clip0_17_614">
<rect width="20" height="20" fill="white"/>
</clipPath>
</defs>
</svg>
