<svg width="20" height="20" viewBox="0 0 20 20" fill="none" xmlns="http://www.w3.org/2000/svg">
<g clip-path="url(#clip0_17_584)">
<path fill-rule="evenodd" clip-rule="evenodd" d="M1.66665 3.33333C1.72328 3.85439 1.84825 4.36572 2.03832 4.85417C2.25034 5.44202 2.40495 6.04902 2.49999 6.66667H7.49999C7.59502 6.04902 7.74963 5.44202 7.96165 4.85417C8.15173 4.36572 8.27669 3.85439 8.33332 3.33333C8.33332 2.44928 7.98213 1.60143 7.35701 0.976311C6.73189 0.35119 5.88404 0 4.99999 0C4.11593 0 3.26809 0.35119 2.64296 0.976311C2.01784 1.60143 1.66665 2.44928 1.66665 3.33333ZM2.07415 8.33333H7.92582C8.10665 8.75 8.32582 9.17667 8.55332 9.61417C9.403 10.9894 9.89993 12.5532 9.99999 14.1667C10.0157 15.5166 9.73525 16.8535 9.17832 18.0833C8.90909 18.6568 8.48203 19.1416 7.94717 19.481C7.41232 19.8205 6.7918 20.0005 6.15832 20H3.84165C3.20817 20.0005 2.58766 19.8205 2.0528 19.481C1.51794 19.1416 1.09088 18.6568 0.821653 18.0833C0.264727 16.8535 -0.0157484 15.5166 -1.36195e-05 14.1667C0.100044 12.5532 0.596975 10.9894 1.44665 9.61417C1.67415 9.17667 1.89332 8.75 2.07415 8.33333Z" fill="#ABB5C5"/>
<path fill-rule="evenodd" clip-rule="evenodd" d="M19.1601 16.5688C19.7101 15.579 19.9991 14.4656 20 13.3333C20.003 12.1163 19.672 10.9219 19.043 9.88C18.4141 8.83812 17.5113 7.98878 16.4331 7.42447C15.3548 6.86017 14.1424 6.60253 12.9279 6.67962C11.7133 6.7567 10.5432 7.16556 9.54498 7.86166C9.69332 8.18333 9.85832 8.5125 10.0325 8.84583C11.0117 10.4557 11.5734 12.2847 11.6666 14.1667C11.683 15.7588 11.3496 17.3351 10.69 18.7842C10.6019 18.9684 10.5025 19.1471 10.3925 19.3192C11.4092 19.8174 12.5361 20.0487 13.6669 19.9912C14.7977 19.9338 15.8953 19.5895 16.8563 18.9907C17.8173 18.392 18.6101 17.5585 19.1601 16.5688ZM14.8595 12.037C14.9511 12.1741 15 12.3352 15 12.5C15 12.721 14.9122 12.933 14.7559 13.0893C14.5996 13.2455 14.3877 13.3333 14.1667 13.3333C14.0018 13.3333 13.8407 13.2845 13.7037 13.1929C13.5666 13.1013 13.4598 12.9712 13.3968 12.8189C13.3337 12.6666 13.3172 12.4991 13.3493 12.3374C13.3815 12.1758 13.4609 12.0273 13.5774 11.9107C13.6939 11.7942 13.8424 11.7148 14.0041 11.6827C14.1657 11.6505 14.3333 11.667 14.4856 11.7301C14.6378 11.7932 14.768 11.9 14.8595 12.037ZM16.5262 9.53702C16.6178 9.67406 16.6667 9.83518 16.6667 10C16.6667 10.221 16.5789 10.433 16.4226 10.5893C16.2663 10.7455 16.0543 10.8333 15.8333 10.8333C15.6685 10.8333 15.5074 10.7845 15.3703 10.6929C15.2333 10.6013 15.1265 10.4712 15.0634 10.3189C15.0003 10.1666 14.9838 9.99907 15.016 9.83742C15.0482 9.67577 15.1275 9.52728 15.2441 9.41074C15.3606 9.2942 15.5091 9.21483 15.6707 9.18267C15.8324 9.15052 15.9999 9.16702 16.1522 9.2301C16.3045 9.29317 16.4346 9.39998 16.5262 9.53702ZM18.1929 12.037C18.2844 12.1741 18.3333 12.3352 18.3333 12.5C18.3333 12.721 18.2455 12.933 18.0892 13.0893C17.933 13.2455 17.721 13.3333 17.5 13.3333C17.3352 13.3333 17.174 13.2845 17.037 13.1929C16.9 13.1013 16.7932 12.9712 16.7301 12.8189C16.667 12.6666 16.6505 12.4991 16.6827 12.3374C16.7148 12.1758 16.7942 12.0273 16.9107 11.9107C17.0273 11.7942 17.1758 11.7148 17.3374 11.6827C17.4991 11.6505 17.6666 11.667 17.8189 11.7301C17.9712 11.7932 18.1013 11.9 18.1929 12.037Z" fill="#656BFF"/>
</g>
<defs>
<clipPath id="clip0_17_584">
<rect width="20" height="20" fill="white"/>
</clipPath>
</defs>
</svg>
