<svg width="20" height="20" viewBox="0 0 20 20" fill="none" xmlns="http://www.w3.org/2000/svg">
<g clip-path="url(#clip0_17_615)">
<path fill-rule="evenodd" clip-rule="evenodd" d="M4.16667 0H15.8333C18.1333 0 20 1.86667 20 4.16667V15.8333C20 18.1333 18.1333 20 15.8333 20H4.16667C1.86667 20 0 18.1333 0 15.8333V4.16667C0 1.86667 1.86667 0 4.16667 0ZM3.33333 10C3.33333 13.675 6.325 16.6667 10 16.6667C13.675 16.6667 16.6667 13.675 16.6667 10C16.6667 6.325 13.675 3.33333 10 3.33333C6.325 3.33333 3.33333 6.325 3.33333 10Z" fill="#707F9B"/>
<path fill-rule="evenodd" clip-rule="evenodd" d="M5 10C5 7.24167 7.24167 5 10 5C12.7583 5 15 7.24167 15 10C15 12.7583 12.7583 15 10 15C7.24167 15 5 12.7583 5 10ZM8.75 10C8.75 10.6917 9.30833 11.25 10 11.25C10.6917 11.25 11.25 10.6917 11.25 10C11.25 9.30833 10.6917 8.75 10 8.75C9.30833 8.75 8.75 9.30833 8.75 10Z" fill="#ED7979"/>
</g>
<defs>
<clipPath id="clip0_17_615">
<rect width="20" height="20" fill="white"/>
</clipPath>
</defs>
</svg>
