<svg width="20" height="20" viewBox="0 0 20 20" fill="none" xmlns="http://www.w3.org/2000/svg">
<g clip-path="url(#clip0_17_583)">
<path fill-rule="evenodd" clip-rule="evenodd" d="M2.85581 3.5967C2.48621 3.82132 2.15412 4.10251 1.87164 4.43003L9.99998 9.30753L18.1283 4.43003C17.8457 4.1023 17.5133 3.82109 17.1433 3.5967L12.1433 0.596695C11.4961 0.207011 10.755 0.00109863 9.99956 0.00109863C9.24413 0.00109863 8.50298 0.207011 7.85581 0.596695L2.85581 3.5967Z" fill="#ABB5C5"/>
<path fill-rule="evenodd" clip-rule="evenodd" d="M10.8333 19.9075V10.75L18.9516 5.88C19.0911 6.29477 19.1637 6.72909 19.1666 7.16667V12.8333C19.1646 13.5527 18.9774 14.2594 18.6231 14.8854C18.2687 15.5114 17.7591 16.0356 17.1433 16.4075L12.1433 19.4075C11.7382 19.6473 11.2952 19.8163 10.8333 19.9075ZM1.04831 5.88L9.16665 10.75V19.9067C8.70452 19.8155 8.26126 19.6464 7.85581 19.4067L2.85581 16.4067C2.24034 16.0347 1.73097 15.5106 1.37675 14.8848C1.02253 14.2589 0.835376 13.5525 0.833313 12.8333V7.16667C0.83628 6.72909 0.908854 6.29477 1.04831 5.88Z" fill="#87B1F0"/>
</g>
<defs>
<clipPath id="clip0_17_583">
<rect width="20" height="20" fill="white"/>
</clipPath>
</defs>
</svg>
