<svg width="20" height="20" viewBox="0 0 20 20" fill="none" xmlns="http://www.w3.org/2000/svg">
<g clip-path="url(#clip0_17_582)">
<path fill-rule="evenodd" clip-rule="evenodd" d="M6.98081 14.1733C7.90425 14.7063 8.95213 14.9857 10.0183 14.9833V14.985C11.047 14.9909 12.0588 14.7241 12.9508 14.2117L16.6666 12.4367V14.6792C16.6662 15.5688 16.3813 16.4349 15.8538 17.1512C15.3262 17.8675 14.5836 18.3965 13.7341 18.6608C12.5207 19.0104 11.2627 19.1808 9.99998 19.1667C8.73743 19.1819 7.47942 19.0126 6.26581 18.6642C5.4164 18.3998 4.67372 17.8708 4.14617 17.1546C3.61862 16.4383 3.33381 15.5721 3.33331 14.6825V12.4325L6.98081 14.1733Z" fill="#D9D9D9"/>
<path fill-rule="evenodd" clip-rule="evenodd" d="M20 16.6667V7.06667C19.9932 6.51249 19.8398 5.96998 19.5554 5.49428C19.271 5.01858 18.8658 4.62666 18.3808 4.35834L12.235 1.43084C11.5708 1.03418 10.8129 0.821629 10.0392 0.815038C9.26562 0.808448 8.50421 1.00806 7.83332 1.39334L1.61915 4.35834C1.59582 4.37001 1.57165 4.38251 1.54915 4.39584C1.07265 4.66829 0.677735 5.0633 0.405387 5.53986C0.133038 6.01642 -0.00682076 6.55719 0.000321506 7.10604C0.00746378 7.65488 0.161347 8.19182 0.446005 8.66114C0.730662 9.13045 1.13572 9.51505 1.61915 9.77501L7.76915 12.7025C8.44996 13.1068 9.22736 13.3196 10.0192 13.3183C10.7742 13.3237 11.5164 13.1238 12.1667 12.74L18.3333 9.79334V16.6667C18.3333 16.8877 18.4211 17.0996 18.5774 17.2559C18.7337 17.4122 18.9456 17.5 19.1667 17.5C19.3877 17.5 19.5996 17.4122 19.7559 17.2559C19.9122 17.0996 20 16.8877 20 16.6667Z" fill="#87B1F0"/>
</g>
<defs>
<clipPath id="clip0_17_582">
<rect width="20" height="20" fill="white"/>
</clipPath>
</defs>
</svg>
