<svg width="20" height="20" viewBox="0 0 20 20" fill="none" xmlns="http://www.w3.org/2000/svg">
<path d="M10 13C10.8284 13 11.5 12.3284 11.5 11.5C11.5 10.6716 10.8284 10 10 10C9.17158 10 8.5 10.6716 8.5 11.5C8.5 12.3284 9.17158 13 10 13Z" fill="#ABB5C5"/>
<path d="M17.902 4.0915L15.9085 2.098C15.709 1.90165 15.4881 1.72833 15.25 1.58124V3.25C15.2475 5.32003 13.57 6.99751 11.5 7H8.49998C6.42995 6.99751 4.75247 5.32003 4.75001 3.25V1C2.67998 1.0025 1.0025 2.67997 1 4.75001V15.25C1.0025 17.32 2.67998 18.9975 4.75001 19H15.25C17.32 18.9975 18.9975 17.32 19 15.25V6.74276C19.0028 5.74781 18.6074 4.79311 17.902 4.0915ZM9.99999 14.5C8.34315 14.5 7.00001 13.1568 7.00001 11.5C7.00001 9.84315 8.34315 8.50001 9.99999 8.50001C11.6568 8.50001 13 9.84315 13 11.5C13 13.1568 11.6568 14.5 9.99999 14.5Z" fill="#ABB5C5"/>
<path d="M8.5 5.50002H11.5C12.7426 5.50002 13.75 4.49265 13.75 3.25002V1.04805C13.5869 1.02147 13.4223 1.00544 13.2572 1.00006H6.25V3.25006C6.25 4.49265 7.25737 5.50002 8.5 5.50002Z" fill="#707F9B"/>
</svg>
