<svg width="20" height="20" viewBox="0 0 20 20" fill="none" xmlns="http://www.w3.org/2000/svg">
<g clip-path="url(#clip0_17_608)">
<path fill-rule="evenodd" clip-rule="evenodd" d="M4.79245 2.22704L5.60372 4.23501C5.67544 4.41252 5.67371 4.61126 5.5989 4.7875C5.52409 4.96373 5.38234 5.10304 5.20482 5.17476C5.02731 5.24648 4.82857 5.24474 4.65233 5.16993C4.4761 5.09513 4.33679 4.95337 4.26507 4.77586L3.4538 2.76788C3.38208 2.59037 3.38381 2.39163 3.45862 2.21539C3.53343 2.03916 3.67518 1.89986 3.8527 1.82814C4.03021 1.75641 4.22895 1.75815 4.40519 1.83296C4.58142 1.90777 4.72073 2.04952 4.79245 2.22704ZM8.46344 1.87047L8.27073 4.28408L8.27006 4.28435C8.26324 4.37938 8.23767 4.47211 8.19484 4.55722C8.15201 4.64232 8.09275 4.7181 8.02049 4.78019C7.94823 4.84228 7.86439 4.88945 7.77381 4.91899C7.68323 4.94852 7.5877 4.95984 7.49273 4.95227C7.39775 4.94471 7.30522 4.91843 7.22045 4.87493C7.13569 4.83143 7.06037 4.77159 6.99884 4.69885C6.93732 4.6261 6.8908 4.5419 6.86197 4.45109C6.83314 4.36029 6.82258 4.26467 6.83088 4.16976L7.02359 1.75615C7.03875 1.56522 7.12914 1.38812 7.27487 1.26383C7.34703 1.20229 7.4306 1.15556 7.52082 1.12631C7.61104 1.09707 7.70613 1.08588 7.80067 1.09338C7.99161 1.10854 8.1687 1.19893 8.293 1.34466C8.41729 1.49039 8.4786 1.67953 8.46344 1.87047ZM3.56015 6.34713C3.52979 6.43696 3.48203 6.51994 3.4196 6.59131L3.41692 6.59239C3.34232 6.677 3.24913 6.74317 3.14466 6.7857C3.02081 6.83523 2.88566 6.84948 2.75421 6.82686C2.62275 6.80424 2.50013 6.74565 2.39996 6.65758L0.573319 5.05984C0.501278 4.99755 0.442273 4.92163 0.399704 4.83644C0.357134 4.75125 0.331842 4.65848 0.325283 4.56347C0.318724 4.46846 0.33103 4.3731 0.361489 4.28287C0.391949 4.19264 0.439961 4.10932 0.50276 4.03773C0.565558 3.96613 0.641903 3.90767 0.727395 3.86571C0.812886 3.82375 0.905835 3.79912 1.00089 3.79324C1.09594 3.78736 1.19122 3.80035 1.28123 3.83145C1.37124 3.86256 1.45421 3.91116 1.52535 3.97447L3.35132 5.57248C3.42272 5.63488 3.48112 5.71074 3.52319 5.79572C3.56527 5.8807 3.59018 5.97314 3.59653 6.06775C3.60287 6.16236 3.5905 6.2573 3.56015 6.34713Z" fill="#ED7979"/>
<path fill-rule="evenodd" clip-rule="evenodd" d="M9.3316 13.5742C9.39873 13.2515 9.36865 12.9161 9.24517 12.6105C9.07958 12.2006 8.75797 11.8734 8.35108 11.7006C7.94419 11.5279 7.48536 11.5239 7.07551 11.6895C6.76988 11.813 6.50773 12.0243 6.32221 12.2968C6.13669 12.5693 6.03613 12.8906 6.03326 13.2203C6.03038 13.5499 6.12531 13.873 6.30605 14.1486C6.48679 14.4243 6.74521 14.6402 7.04864 14.769C7.35207 14.8978 7.68688 14.9337 8.01073 14.8722C8.33458 14.8107 8.63293 14.6546 8.86804 14.4236C9.10315 14.1925 9.26447 13.8969 9.3316 13.5742ZM18.735 4.95474L18.3454 3.99047C18.2429 3.7368 18.0914 3.50581 17.8997 3.31067C17.7079 3.11553 17.4796 2.96008 17.2278 2.85318C16.9759 2.74628 16.7055 2.69003 16.4319 2.68764C16.1583 2.68526 15.887 2.73678 15.6333 2.83927L5.37942 6.9821C3.79053 7.6038 2.49376 8.80063 1.74689 10.3347C1.00002 11.8687 0.857737 13.6276 1.34833 15.2617C1.62743 16.1363 2.08417 16.9439 2.68993 17.6338C3.29568 18.3236 4.0374 18.8809 4.86858 19.2708C5.69977 19.6606 6.60252 19.8746 7.52026 19.8992C8.43799 19.9239 9.35094 19.7588 10.2019 19.4142C10.5327 19.2804 10.8527 19.121 11.1589 18.9376C12.0771 18.3789 12.8456 17.6053 13.3984 16.6835C13.9512 15.7617 14.2715 14.7193 14.3319 13.6462C14.4007 12.6975 14.263 11.7453 13.9285 10.8549C13.8506 10.6771 13.8371 10.4776 13.8905 10.291C13.9439 10.1043 14.0608 9.94219 14.221 9.83254L17.9159 7.49667C18.3285 7.23603 18.6366 6.83877 18.7863 6.37421C18.936 5.90965 18.9178 5.40728 18.735 4.95474ZM9.57588 10.4795C10.1208 10.8506 10.5435 11.3749 10.7905 11.9861C11.1216 12.8058 11.1136 13.7235 10.7682 14.5373C10.4228 15.351 9.76823 15.9943 8.94855 16.3254C8.33728 16.5724 7.66651 16.6326 7.02105 16.4983C6.3756 16.364 5.78445 16.0414 5.32236 15.5712C4.86027 15.101 4.548 14.5043 4.42503 13.8566C4.30206 13.2089 4.37391 12.5392 4.63151 11.9324C4.88911 11.3255 5.32088 10.8087 5.87222 10.4472C6.42355 10.0857 7.0697 9.89586 7.72895 9.90161C8.38819 9.90736 9.03093 10.1085 9.57588 10.4795Z" fill="#F1D672"/>
</g>
<defs>
<clipPath id="clip0_17_608">
<rect width="20" height="20" fill="white"/>
</clipPath>
</defs>
</svg>
